<svg xmlns="http://www.w3.org/2000/svg" width="820" height="140" viewBox="0 0 820 140">
  <defs>
    <style>
      .title{font:700 40px Arial, Helvetica, sans-serif; fill:#111827}
      .sub{font:500 16px Arial, Helvetica, sans-serif; fill:#374151; letter-spacing:.2px}
    </style>
  </defs>
  <g transform="translate(10,22)">
    <g transform="translate(0,0)">
      <g fill="none" stroke="#111827" stroke-width="5" stroke-linecap="round" stroke-linejoin="round">
        <circle cx="48" cy="48" r="37"/>
        <path d="M48 4v10M48 82v10M4 48h10M82 48h10"/>
        <path d="M16 16l7 7M73 73l7 7M16 80l7-7M73 23l7-7"/>
      </g>
      <g transform="translate(22,26)" fill="#111827">
        <path d="M26 0L52 10 26 20 0 10 26 0Z"/>
        <path d="M18 20h16v10c0 2-1.6 3.5-3.5 3.5H21.5C19.6 33.5 18 32 18 30V20Z"/>
        <path d="M52 10v22" fill="none" stroke="#111827" stroke-width="4" stroke-linecap="round"/>
        <circle cx="52" cy="34" r="3.2"/>
      </g>
    </g>

    <text x="116" y="54" class="title">SAG Decision Dashboard</text>
    <text x="116" y="88" class="sub">Academic Thesis Tool • DEM (Rocky) + FEM (ANSYS) + Morrell/Tavares</text>
  </g>
</svg>
