<svg xmlns="http://www.w3.org/2000/svg" width="680" height="140" viewBox="0 0 680 140">
  <defs>
    <style>
      .t1{font:700 34px Arial, Helvetica, sans-serif; fill:#111827}
      .t2{font:500 14px Arial, Helvetica, sans-serif; fill:#374151; letter-spacing:.3px}
    </style>
  </defs>
  <g transform="translate(18,18)">
    <circle cx="52" cy="52" r="42" fill="none" stroke="#111827" stroke-width="6"/>
    <g fill="#111827">
      <rect x="49" y="0" width="6" height="16" rx="2"/>
      <rect x="49" y="88" width="6" height="16" rx="2"/>
      <rect x="0" y="49" width="16" height="6" rx="2"/>
      <rect x="88" y="49" width="16" height="6" rx="2"/>
      <rect x="14" y="14" width="12" height="6" rx="2" transform="rotate(-45 20 17)"/>
      <rect x="78" y="14" width="12" height="6" rx="2" transform="rotate(45 84 17)"/>
      <rect x="14" y="84" width="12" height="6" rx="2" transform="rotate(45 20 87)"/>
      <rect x="78" y="84" width="12" height="6" rx="2" transform="rotate(-45 84 87)"/>
    </g>
    <g transform="translate(26,34)">
      <polygon points="26,0 52,10 26,20 0,10" fill="#111827"/>
      <rect x="18" y="20" width="16" height="10" rx="2" fill="#111827"/>
      <line x1="52" y1="10" x2="52" y2="32" stroke="#111827" stroke-width="3"/>
      <circle cx="52" cy="34" r="3" fill="#111827"/>
    </g>
  </g>
  <text x="140" y="62" class="t1">SAG Decision Dashboard</text>
  <text x="140" y="92" class="t2">Herramienta Académica • DEM (Rocky) + FEM (ANSYS) + Morrell/Tavares</text>
</svg>
