<svg xmlns="http://www.w3.org/2000/svg" width="96" height="96" viewBox="0 0 96 96">
  <g fill="none" stroke="#111827" stroke-width="5" stroke-linecap="round" stroke-linejoin="round">
    <circle cx="48" cy="48" r="37"/>
    <!-- ticks -->
    <path d="M48 4v10M48 82v10M4 48h10M82 48h10"/>
    <path d="M16 16l7 7M73 73l7 7M16 80l7-7M73 23l7-7"/>
  </g>
  <!-- mortarboard -->
  <g transform="translate(22,26)" fill="#111827">
    <path d="M26 0L52 10 26 20 0 10 26 0Z"/>
    <path d="M18 20h16v10c0 2-1.6 3.5-3.5 3.5H21.5C19.6 33.5 18 32 18 30V20Z"/>
    <path d="M52 10v22" fill="none" stroke="#111827" stroke-width="4" stroke-linecap="round"/>
    <circle cx="52" cy="34" r="3.2"/>
  </g>
</svg>
